{
	"asset":{
		"generator":"Khronos glTF Blender I/O v3.6.27",
		"version":"2.0"
	},
	"extensionsUsed":[
		"KHR_materials_specular",
		"KHR_materials_ior"
	],
	"scene":0,
	"scenes":[
		{
			"name":"Scene",
			"nodes":[
				0,
				2,
				3,
				4,
				5
			]
		}
	],
	"nodes":[
		{
			"mesh":0,
			"name":"Cylinder.004"
		},
		{
			"mesh":1,
			"name":"Plane.001"
		},
		{
			"children":[
				1
			],
			"mesh":2,
			"name":"Plane.032",
			"rotation":[
				-0.7901434898376465,
				-0.000843979069031775,
				-0.0018112079706043005,
				0.6129186749458313
			],
			"translation":[
				0.3763425052165985,
				-0.11150965094566345,
				0.05903808772563934
			]
		},
		{
			"mesh":3,
			"name":"Cylinder.001"
		},
		{
			"mesh":4,
			"name":"Cylinder",
			"rotation":[
				-0.05891531705856323,
				-0.05891531705856323,
				-0.7046480774879456,
				0.7046482563018799
			],
			"scale":[
				0.11008838564157486,
				0.11008837819099426,
				0.11008838564157486
			],
			"translation":[
				0.3763425052165985,
				-0.11150964349508286,
				0.06416387110948563
			]
		},
		{
			"mesh":5,
			"name":"Plane",
			"rotation":[
				0.964318037033081,
				-0.03818650171160698,
				-0.05221197381615639,
				0.256722629070282
			],
			"scale":[
				0.011508903466165066,
				0.018649185076355934,
				0.01861213706433773
			],
			"translation":[
				0.3966214656829834,
				-0.11394710093736649,
				0.06773024797439575
			]
		}
	],
	"materials":[
		{
			"doubleSided":true,
			"extensions":{
				"KHR_materials_specular":{
					"specularColorFactor":[
						1.5090457289456298,
						1.5090457289456298,
						1.5090457289456298
					]
				},
				"KHR_materials_ior":{
					"ior":1.4500000476837158
				}
			},
			"name":"Material.002",
			"pbrMetallicRoughness":{
				"baseColorFactor":[
					0.800000011920929,
					0.800000011920929,
					0.800000011920929,
					1
				],
				"metallicFactor":0,
				"roughnessFactor":0.13636362552642822
			}
		},
		{
			"doubleSided":true,
			"name":"Material",
			"pbrMetallicRoughness":{
				"baseColorFactor":[
					0,
					0,
					0,
					1
				],
				"metallicFactor":0.3858267664909363,
				"roughnessFactor":0.27165353298187256
			}
		},
		{
			"doubleSided":true,
			"extensions":{
				"KHR_materials_specular":{
					"specularColorFactor":[
						0,
						0,
						0
					]
				},
				"KHR_materials_ior":{
					"ior":11.049999237060547
				}
			},
			"name":"Material.001",
			"pbrMetallicRoughness":{
				"baseColorFactor":[
					0.48668327927589417,
					0.3271503150463104,
					0.17930465936660767,
					1
				],
				"metallicFactor":0.48636364936828613,
				"roughnessFactor":0.09999999403953552
			}
		},
		{
			"doubleSided":true,
			"name":"Material.003",
			"pbrMetallicRoughness":{
				"baseColorTexture":{
					"index":0
				},
				"metallicFactor":0,
				"roughnessFactor":0.5
			}
		}
	],
	"meshes":[
		{
			"name":"Cylinder.001",
			"primitives":[
				{
					"attributes":{
						"POSITION":0,
						"NORMAL":1,
						"TEXCOORD_0":2,
						"TEXCOORD_1":3
					},
					"indices":4,
					"material":0
				}
			]
		},
		{
			"name":"Plane.010",
			"primitives":[
				{
					"attributes":{
						"POSITION":5,
						"NORMAL":6,
						"TEXCOORD_0":7
					},
					"indices":8,
					"material":1
				}
			]
		},
		{
			"name":"Plane.001",
			"primitives":[
				{
					"attributes":{
						"POSITION":9,
						"NORMAL":10,
						"TEXCOORD_0":11
					},
					"indices":12,
					"material":0
				}
			]
		},
		{
			"name":"Cylinder.014",
			"primitives":[
				{
					"attributes":{
						"POSITION":13,
						"NORMAL":14,
						"TEXCOORD_0":15,
						"TEXCOORD_1":16
					},
					"indices":17,
					"material":2
				}
			]
		},
		{
			"name":"Cylinder.015",
			"primitives":[
				{
					"attributes":{
						"POSITION":18,
						"NORMAL":19,
						"TEXCOORD_0":20
					},
					"indices":21,
					"material":1
				}
			]
		},
		{
			"name":"Plane.011",
			"primitives":[
				{
					"attributes":{
						"POSITION":22,
						"NORMAL":23,
						"TEXCOORD_0":24
					},
					"indices":25,
					"material":3
				}
			]
		}
	],
	"textures":[
		{
			"sampler":0,
			"source":0
		}
	],
	"images":[
		{
			"bufferView":26,
			"mimeType":"image/png",
			"name":"Plane"
		}
	],
	"accessors":[
		{
			"bufferView":0,
			"componentType":5126,
			"count":16965,
			"max":[
				0.48552262783050537,
				0.1253318339586258,
				0.1112213060259819
			],
			"min":[
				-0.41643163561820984,
				-0.12898613512516022,
				-0.0636538714170456
			],
			"type":"VEC3"
		},
		{
			"bufferView":1,
			"componentType":5126,
			"count":16965,
			"type":"VEC3"
		},
		{
			"bufferView":2,
			"componentType":5126,
			"count":16965,
			"type":"VEC2"
		},
		{
			"bufferView":3,
			"componentType":5126,
			"count":16965,
			"type":"VEC2"
		},
		{
			"bufferView":4,
			"componentType":5123,
			"count":79884,
			"type":"SCALAR"
		},
		{
			"bufferView":5,
			"componentType":5126,
			"count":148,
			"max":[
				-0.3443494439125061,
				0.026893042027950287,
				0.04045751318335533
			],
			"min":[
				-0.34945544600486755,
				0.009148962795734406,
				0.009033497422933578
			],
			"type":"VEC3"
		},
		{
			"bufferView":6,
			"componentType":5126,
			"count":148,
			"type":"VEC3"
		},
		{
			"bufferView":7,
			"componentType":5126,
			"count":148,
			"type":"VEC2"
		},
		{
			"bufferView":8,
			"componentType":5123,
			"count":300,
			"type":"SCALAR"
		},
		{
			"bufferView":9,
			"componentType":5126,
			"count":1537,
			"max":[
				0.006726503372192383,
				0.02004319429397583,
				0.017727602273225784
			],
			"min":[
				-0.6912105083465576,
				-0.031221069395542145,
				-0.004978902637958527
			],
			"type":"VEC3"
		},
		{
			"bufferView":10,
			"componentType":5126,
			"count":1537,
			"type":"VEC3"
		},
		{
			"bufferView":11,
			"componentType":5126,
			"count":1537,
			"type":"VEC2"
		},
		{
			"bufferView":12,
			"componentType":5123,
			"count":4944,
			"type":"SCALAR"
		},
		{
			"bufferView":13,
			"componentType":5126,
			"count":666,
			"max":[
				0.45755332708358765,
				0.10566660761833191,
				0.12744608521461487
			],
			"min":[
				-0.3871813714504242,
				-0.07022807002067566,
				0.09322009980678558
			],
			"type":"VEC3"
		},
		{
			"bufferView":14,
			"componentType":5126,
			"count":666,
			"type":"VEC3"
		},
		{
			"bufferView":15,
			"componentType":5126,
			"count":666,
			"type":"VEC2"
		},
		{
			"bufferView":16,
			"componentType":5126,
			"count":666,
			"type":"VEC2"
		},
		{
			"bufferView":17,
			"componentType":5123,
			"count":3264,
			"type":"SCALAR"
		},
		{
			"bufferView":18,
			"componentType":5126,
			"count":209,
			"max":[
				-0.046727124601602554,
				0.1367216259241104,
				0.3896196484565735
			],
			"min":[
				-0.7906141877174377,
				-6.361687660217285,
				-0.5534955859184265
			],
			"type":"VEC3"
		},
		{
			"bufferView":19,
			"componentType":5126,
			"count":209,
			"type":"VEC3"
		},
		{
			"bufferView":20,
			"componentType":5126,
			"count":209,
			"type":"VEC2"
		},
		{
			"bufferView":21,
			"componentType":5123,
			"count":1056,
			"type":"SCALAR"
		},
		{
			"bufferView":22,
			"componentType":5126,
			"count":225,
			"max":[
				0.9190202951431274,
				-0.02184518426656723,
				0.9299745559692383
			],
			"min":[
				-1.0029780864715576,
				-0.2404913604259491,
				-0.9503737092018127
			],
			"type":"VEC3"
		},
		{
			"bufferView":23,
			"componentType":5126,
			"count":225,
			"type":"VEC3"
		},
		{
			"bufferView":24,
			"componentType":5126,
			"count":225,
			"type":"VEC2"
		},
		{
			"bufferView":25,
			"componentType":5123,
			"count":1152,
			"type":"SCALAR"
		}
	],
	"bufferViews":[
		{
			"buffer":0,
			"byteLength":203580,
			"byteOffset":0,
			"target":34962
		},
		{
			"buffer":0,
			"byteLength":203580,
			"byteOffset":203580,
			"target":34962
		},
		{
			"buffer":0,
			"byteLength":135720,
			"byteOffset":407160,
			"target":34962
		},
		{
			"buffer":0,
			"byteLength":135720,
			"byteOffset":542880,
			"target":34962
		},
		{
			"buffer":0,
			"byteLength":159768,
			"byteOffset":678600,
			"target":34963
		},
		{
			"buffer":0,
			"byteLength":1776,
			"byteOffset":838368,
			"target":34962
		},
		{
			"buffer":0,
			"byteLength":1776,
			"byteOffset":840144,
			"target":34962
		},
		{
			"buffer":0,
			"byteLength":1184,
			"byteOffset":841920,
			"target":34962
		},
		{
			"buffer":0,
			"byteLength":600,
			"byteOffset":843104,
			"target":34963
		},
		{
			"buffer":0,
			"byteLength":18444,
			"byteOffset":843704,
			"target":34962
		},
		{
			"buffer":0,
			"byteLength":18444,
			"byteOffset":862148,
			"target":34962
		},
		{
			"buffer":0,
			"byteLength":12296,
			"byteOffset":880592,
			"target":34962
		},
		{
			"buffer":0,
			"byteLength":9888,
			"byteOffset":892888,
			"target":34963
		},
		{
			"buffer":0,
			"byteLength":7992,
			"byteOffset":902776,
			"target":34962
		},
		{
			"buffer":0,
			"byteLength":7992,
			"byteOffset":910768,
			"target":34962
		},
		{
			"buffer":0,
			"byteLength":5328,
			"byteOffset":918760,
			"target":34962
		},
		{
			"buffer":0,
			"byteLength":5328,
			"byteOffset":924088,
			"target":34962
		},
		{
			"buffer":0,
			"byteLength":6528,
			"byteOffset":929416,
			"target":34963
		},
		{
			"buffer":0,
			"byteLength":2508,
			"byteOffset":935944,
			"target":34962
		},
		{
			"buffer":0,
			"byteLength":2508,
			"byteOffset":938452,
			"target":34962
		},
		{
			"buffer":0,
			"byteLength":1672,
			"byteOffset":940960,
			"target":34962
		},
		{
			"buffer":0,
			"byteLength":2112,
			"byteOffset":942632,
			"target":34963
		},
		{
			"buffer":0,
			"byteLength":2700,
			"byteOffset":944744,
			"target":34962
		},
		{
			"buffer":0,
			"byteLength":2700,
			"byteOffset":947444,
			"target":34962
		},
		{
			"buffer":0,
			"byteLength":1800,
			"byteOffset":950144,
			"target":34962
		},
		{
			"buffer":0,
			"byteLength":2304,
			"byteOffset":951944,
			"target":34963
		},
		{
			"buffer":0,
			"byteLength":23332,
			"byteOffset":954248
		}
	],
	"samplers":[
		{
			"magFilter":9729,
			"minFilter":9987
		}
	],
	"buffers":[
		{
			"byteLength":977580,
			"uri":"data:application/octet-stream;base64,"
		}
	]
}
